<svg width="80" height="80" viewBox="0 0 80 80" fill="none" xmlns="http://www.w3.org/2000/svg">
<path d="M40 71.6667C57.489 71.6667 71.6667 57.489 71.6667 40C71.6667 22.511 57.489 8.33334 40 8.33334C22.511 8.33334 8.33333 22.511 8.33333 40C8.33333 57.489 22.511 71.6667 40 71.6667Z" stroke="white" stroke-width="2" stroke-linecap="round" stroke-linejoin="round"/>
<path d="M29.6953 26.213V53.7783C29.6966 54.3437 29.8561 54.897 30.1556 55.3763C30.4551 55.8557 30.8827 56.2417 31.3901 56.4907C31.8974 56.7397 32.4643 56.8417 33.0267 56.7853C33.589 56.7287 34.1243 56.5163 34.5723 56.1713L53.656 41.3287C54.034 41.0337 54.3363 40.6533 54.5387 40.2187C54.741 39.784 54.837 39.3077 54.8193 38.8283C54.8017 38.3493 54.6703 37.8813 54.4367 37.463C54.2027 37.0443 53.873 36.6873 53.4743 36.4213L34.3903 23.6988C33.935 23.3988 33.4067 23.2273 32.8618 23.2026C32.3169 23.1778 31.7753 23.3007 31.2944 23.5582C30.8135 23.8157 30.4111 24.1983 30.1296 24.6656C29.8482 25.1329 29.6981 25.6675 29.6953 26.213Z" stroke="white" stroke-width="2" stroke-linecap="round" stroke-linejoin="round"/>
</svg>
