<svg width="18" height="18" viewBox="0 0 18 18" fill="none" xmlns="http://www.w3.org/2000/svg">
<path d="M15.9375 8.05867V12.375C15.9375 13.1707 15.6214 13.9337 15.0588 14.4963C14.4962 15.0589 13.7332 15.375 12.9375 15.375H5.0625C4.26685 15.375 3.50379 15.0589 2.94118 14.4963C2.37857 13.9337 2.0625 13.1707 2.0625 12.375V5.625C2.0625 4.82935 2.37857 4.06629 2.94118 3.50368C3.50379 2.94107 4.26685 2.625 5.0625 2.625H10.426" stroke="#282943" stroke-width="1.3" stroke-linecap="round" stroke-linejoin="round"/>
<path d="M2.0625 5.69238L7.5 8.78991C7.9545 9.05766 8.47245 9.19888 9 9.19888C9.52755 9.19888 10.0455 9.05766 10.5 8.78991L12.1642 7.84746" stroke="#282943" stroke-width="1.3" stroke-linecap="round" stroke-linejoin="round"/>
<path d="M14.25 5.625C15.2855 5.625 16.125 4.78553 16.125 3.75C16.125 2.71447 15.2855 1.875 14.25 1.875C13.2145 1.875 12.375 2.71447 12.375 3.75C12.375 4.78553 13.2145 5.625 14.25 5.625Z" stroke="#282943" stroke-width="1.3"/>
</svg>
