<svg width="18" height="18" viewBox="0 0 18 18" fill="none" xmlns="http://www.w3.org/2000/svg">
<path d="M9.55155 15.1434C9.3216 15.038 9.09165 14.9325 8.86162 14.8078C7.7349 14.1711 6.70008 13.3839 5.78557 12.4678C4.59981 11.351 3.62584 10.0286 2.91076 8.56463C2.52763 7.77825 2.269 6.93707 2.14416 6.07118C1.97413 5.19658 2.07097 4.29104 2.42205 3.47225C2.63842 3.12045 2.89932 2.79811 3.19825 2.51324C3.31942 2.3774 3.46676 2.26747 3.63143 2.19002C3.79609 2.11256 3.97469 2.06918 4.15651 2.0625C4.535 2.11919 4.87768 2.31809 5.11478 2.61872C5.63224 3.19413 6.18805 3.71201 6.73426 4.25864C6.94933 4.44329 7.0835 4.70496 7.10798 4.98749C7.09876 5.22521 7.00731 5.45234 6.84925 5.63003C6.66718 5.8602 6.44677 6.07118 6.23596 6.29175C6.10872 6.41435 6.01142 6.56465 5.95159 6.73096C5.89177 6.89727 5.87103 7.07514 5.89098 7.25077C6.02263 7.66208 6.24913 8.03655 6.55219 8.34405C6.91633 8.84272 7.28047 9.30308 7.69245 9.79215C8.43285 10.6477 9.31057 11.3737 10.2894 11.9404C10.4247 12.0427 10.5847 12.1073 10.753 12.1274C10.9213 12.1477 11.0921 12.1229 11.2477 12.0554C11.5731 11.8733 11.8621 11.6327 12.1006 11.3457C12.3067 11.0944 12.6021 10.933 12.9247 10.895C13.2117 10.9097 13.4824 11.0331 13.6817 11.2403C13.9404 11.4609 14.1608 11.7198 14.4004 11.9595C14.64 12.1993 14.8316 12.3719 15.0328 12.5925C15.2738 12.8048 15.501 13.0323 15.7132 13.2734C15.8778 13.4863 15.9564 13.7533 15.9337 14.0214C15.8482 14.3419 15.6637 14.6272 15.4066 14.8366C15.0448 15.2131 14.6053 15.5061 14.1187 15.6949C13.6321 15.8837 13.1101 15.9639 12.5893 15.9298C11.5348 15.8707 10.5025 15.6035 9.55155 15.1434Z" stroke="#282943" stroke-width="1.3" stroke-miterlimit="10" stroke-linecap="round"/>
</svg>
